# xmcd CD database file
#
# Track frame offsets:
#	150
#	11487
#	24877
#	34907
#	47962
#	65130
#	75962
#	88605
#	103800
#	112230
#	125337
#	136152
#	149747
#	160072
#	172982
#	182595
#	194347
#	205222
#	210742
#	221995
#	231875
#	241730
#	253237
#	263980
#	271705
#
# Disc length: 3847 seconds
#
# Revision: 1
# Processed by: cddbd v1.5.2PL0 Copyright (c) Steve Scherf et al.
# Submitted via: CDex 1.70beta2
#
DISCID=6e0f0519
DTITLE=Various Artist - Blue Eyes Crying In The Rain
DYEAR=2004
DGENRE=Country
TTITLE0=Blue Eyes Crying In The Rain
TTITLE1=Blue Eyes Crying In The Rain
TTITLE2=Blue Eyes Crying In The Rain
TTITLE3=Blue Eyes Crying In The Rain
TTITLE4=Blue Eyes Crying In The Rain
TTITLE5=Blue Eyes Crying In The Rain
TTITLE6=Blue Eyes Crying In The Rain
TTITLE7=Blue Eyes Crying In The Rain
TTITLE8=Blue Eyes Crying In The Rain
TTITLE9=Blue Eyes Crying In The Rain
TTITLE10=Blue Eyes Crying In The Rain
TTITLE11=Blue Eyes Crying In The Rain
TTITLE12=Blue Eyes Crying In The Rain
TTITLE13=Blue Eyes Crying In The Rain
TTITLE14=Blue Eyes Crying In The Rain
TTITLE15=Blue Eyes Crying In The Rain
TTITLE16=Blue Eyes Crying In The Rain
TTITLE17=Blue Eyes Crying In The Rain
TTITLE18=Blue Eyes Crying In The Rain
TTITLE19=Blue Eyes Crying In The Rain
TTITLE20=Blue Eyes Crying In The Rain
TTITLE21=Blue Eyes Crying In The Rain
TTITLE22=Blue Eyes Crying In The Rain
TTITLE23=Blue Eyes Crying In The Rain
TTITLE24=Blue Eyes Crying In The Rain
EXTD=YEAR: 2004
EXTT0=
EXTT1=
EXTT2=
EXTT3=
EXTT4=
EXTT5=
EXTT6=
EXTT7=
EXTT8=
EXTT9=
EXTT10=
EXTT11=
EXTT12=
EXTT13=
EXTT14=
EXTT15=
EXTT16=
EXTT17=
EXTT18=
EXTT19=
EXTT20=
EXTT21=
EXTT22=
EXTT23=
EXTT24=
PLAYORDER=
